<svg data-v-423bf9ae="" xmlns="http://www.w3.org/2000/svg" viewBox="0 0 892.9747540657412 185" class="iconAbove"><!----><!----><!----><g data-v-423bf9ae="" id="91701ec1-f353-4081-a748-b1fd3de72916" fill="black" transform="matrix(13.577733526672345,0,0,13.577733526672345,1.2219849047555726,51.77959216155412)"><path d="M0 5.50L0 5.50L0 5.50Q0.35 5.21 0.39 5.67L0.39 5.67L0.39 5.67Q0.40 5.76 0.40 5.87L0.40 5.87L0.40 5.87Q0.40 5.97 0.40 6.08L0.40 6.08L0.40 6.08Q0.39 6.21 0.39 6.32L0.39 6.32L0.39 6.32Q0.38 6.44 0.38 6.56L0.38 6.56L0.38 6.56Q0.40 6.90 0.56 6.96L0.56 6.96L0.56 6.96Q0.72 7.02 0.90 6.82L0.90 6.82L0.90 6.82Q1.02 6.69 1.16 6.54L1.16 6.54L1.16 6.54Q1.29 6.39 1.46 6.25L1.46 6.25L1.46 6.25Q1.59 6.14 1.72 6.02L1.72 6.02L1.72 6.02Q1.85 5.89 1.98 5.77L1.98 5.77L1.98 5.77Q2.01 5.74 2.07 5.70L2.07 5.70L2.07 5.70Q2.13 5.65 2.21 5.58L2.21 5.58L2.21 5.58Q2.38 5.46 2.46 5.43L2.46 5.43L2.46 5.43Q2.61 5.41 2.69 5.51L2.69 5.51L2.69 5.51Q2.75 5.63 2.64 5.74L2.64 5.74L2.64 5.74Q2.54 5.87 2.47 5.96L2.47 5.96L2.47 5.96Q2.39 6.04 2.34 6.09L2.34 6.09L2.34 6.09Q2.25 6.19 2.00 6.38L2.00 6.38L2.00 6.38Q1.89 6.46 1.77 6.56L1.77 6.56L1.77 6.56Q1.65 6.65 1.56 6.75L1.56 6.75L1.56 6.75Q1.39 6.94 1.37 7.10L1.37 7.10L1.37 7.10Q1.36 7.18 1.38 7.28L1.38 7.28L1.38 7.28Q1.41 7.38 1.48 7.50L1.48 7.50L1.48 7.50Q1.54 7.62 1.61 7.74L1.61 7.74L1.61 7.74Q1.67 7.86 1.74 7.98L1.74 7.98L1.74 7.98Q1.77 8.05 1.80 8.11L1.80 8.11L1.80 8.11Q1.83 8.16 1.84 8.20L1.84 8.20L1.84 8.20L1.84 8.20Q2.00 8.50 2.23 8.78L2.23 8.78L2.23 8.78Q2.46 9.06 2.75 9.34L2.75 9.34L2.75 9.34Q2.90 9.48 2.75 9.63L2.75 9.63L2.75 9.63Q2.60 9.79 2.45 9.64L2.45 9.64L2.45 9.64Q1.92 9.14 1.67 8.74L1.67 8.74L1.67 8.74Q1.50 8.49 1.37 8.22L1.37 8.22L1.37 8.22Q1.24 7.95 1.12 7.68L1.12 7.68L1.12 7.68Q1.01 7.46 0.87 7.45L0.87 7.45L0.87 7.45Q0.75 7.45 0.56 7.67L0.56 7.67L0.56 7.67Q0.49 7.77 0.45 7.87L0.45 7.87L0.45 7.87Q0.42 7.97 0.40 8.08L0.40 8.08L0.40 8.08Q0.39 8.24 0.42 8.40L0.42 8.40L0.42 8.40Q0.46 8.57 0.44 8.72L0.44 8.72L0.44 8.72Q0.44 8.76 0.43 8.78L0.43 8.78L0.43 8.78Q0.40 8.97 0.40 9.14L0.40 9.14L0.40 9.14Q0.39 9.32 0.40 9.48L0.40 9.48L0.40 9.48Q0.40 9.68 0.17 9.70L0.17 9.70L0.17 9.70Q-0.03 9.69-0.03 9.49L-0.03 9.49L-0.03 9.49Q-0.03 9.16-0.04 8.84L-0.04 8.84L-0.04 8.84Q-0.05 8.51-0.06 8.18L-0.06 8.18L-0.06 8.18Q-0.08 7.94-0.04 7.69L-0.04 7.69L-0.04 7.69Q-0.01 7.44-0.01 7.20L-0.01 7.20L-0.01 7.20Q-0.01 7.11-0.00 7.01L-0.00 7.01L-0.00 7.01Q0 6.92 0 6.82L0 6.82L0 6.82Q0.01 6.47 0 6.33L0 6.33L-0.08 5.91L-0.08 5.91Q-0.12 5.65 0 5.50ZM4.76 9.70L4.76 9.70L4.76 9.70Q4.55 9.67 4.55 9.44L4.55 9.44L4.55 9.44Q4.54 9.07 4.54 8.72L4.54 8.72L4.54 8.72Q4.54 8.36 4.54 7.99L4.54 7.99L4.54 7.99Q4.54 7.79 4.56 7.58L4.56 7.58L4.56 7.58Q4.57 7.43 4.57 7.30L4.57 7.30L4.57 7.30Q4.57 7.17 4.57 7.06L4.57 7.06L4.57 7.06Q4.56 6.99 4.55 6.90L4.55 6.90L4.55 6.90Q4.55 6.80 4.54 6.67L4.54 6.67L4.54 6.67Q4.54 6.60 4.54 6.51L4.54 6.51L4.54 6.51Q4.55 6.41 4.55 6.28L4.55 6.28L4.55 6.28Q4.56 6.19 4.56 6.11L4.56 6.11L4.56 6.11Q4.57 6.04 4.57 5.99L4.57 5.99L4.57 5.84L4.57 5.83L4.57 5.78L4.57 5.78Q4.55 5.61 4.57 5.54L4.57 5.54L4.57 5.54Q4.59 5.49 4.66 5.44L4.66 5.44L4.66 5.44Q4.93 5.30 4.99 5.61L4.99 5.61L4.99 5.61Q5.04 5.84 5.06 6.07L5.06 6.07L5.06 6.07Q5.07 6.29 5.04 6.51L5.04 6.51L5.04 6.51L5.04 6.51Q5.02 6.73 5.03 6.94L5.03 6.94L5.03 6.94Q5.04 7.15 5.02 7.36L5.02 7.36L5.02 7.36Q5.00 7.55 4.99 7.68L4.99 7.68L4.99 7.68Q4.98 7.82 4.97 7.92L4.97 7.92L4.97 7.92Q4.96 8.05 4.96 8.20L4.96 8.20L4.96 8.20Q4.96 8.35 4.96 8.51L4.96 8.51L4.96 8.51Q4.97 8.54 4.97 8.59L4.97 8.59L4.97 8.59Q4.97 8.63 4.97 8.70L4.97 8.70L4.97 8.70Q4.97 8.80 4.97 8.91L4.97 8.91L4.97 8.91Q4.97 9.02 4.98 9.13L4.98 9.13L4.98 9.13Q4.98 9.20 4.98 9.27L4.98 9.27L4.98 9.27Q4.98 9.33 4.98 9.40L4.98 9.40L4.98 9.40Q4.98 9.54 4.97 9.55L4.97 9.55L4.97 9.55Q4.94 9.68 4.76 9.70ZM10.17 5.75L10.17 5.75L10.17 5.75Q10.08 5.86 9.86 5.84L9.86 5.84L9.52 5.82L9.52 5.82Q9.41 5.82 9.32 5.81L9.32 5.81L9.32 5.81Q9.22 5.80 9.12 5.80L9.12 5.80L9.12 5.80Q8.91 5.80 8.82 5.89L8.82 5.89L8.82 5.89Q8.74 5.98 8.74 6.19L8.74 6.19L8.74 6.19Q8.74 6.28 8.75 6.37L8.75 6.37L8.75 6.37Q8.76 6.47 8.76 6.56L8.76 6.56L8.76 6.56Q8.77 6.79 8.77 6.96L8.77 6.96L8.77 6.96Q8.78 7.12 8.78 7.24L8.78 7.24L8.78 7.24Q8.78 7.59 8.74 7.94L8.74 7.94L8.74 7.94Q8.72 8.10 8.74 8.26L8.74 8.26L8.74 8.26Q8.76 8.43 8.76 8.59L8.76 8.59L8.76 8.59Q8.77 8.76 8.77 8.89L8.77 8.89L8.77 8.89Q8.78 9.02 8.78 9.11L8.78 9.11L8.78 9.11Q8.78 9.15 8.78 9.20L8.78 9.20L8.78 9.20Q8.78 9.26 8.77 9.35L8.77 9.35L8.77 9.35Q8.76 9.54 8.74 9.58L8.74 9.58L8.74 9.58Q8.65 9.73 8.51 9.69L8.51 9.69L8.51 9.69Q8.33 9.65 8.33 9.43L8.33 9.43L8.33 9.43Q8.33 9.22 8.34 9.01L8.34 9.01L8.34 9.01Q8.36 8.80 8.37 8.60L8.37 8.60L8.37 8.60Q8.39 8.36 8.37 8.11L8.37 8.11L8.37 8.11Q8.35 7.87 8.35 7.62L8.35 7.62L8.35 7.62Q8.35 7.40 8.36 7.17L8.36 7.17L8.36 7.17Q8.38 6.94 8.39 6.71L8.39 6.71L8.39 6.71Q8.39 6.27 8.24 6.08L8.24 6.08L8.24 6.08Q8.17 5.99 8.06 5.94L8.06 5.94L8.06 5.94Q7.96 5.89 7.83 5.87L7.83 5.87L7.83 5.87Q7.70 5.86 7.58 5.85L7.58 5.85L7.58 5.85Q7.47 5.84 7.36 5.84L7.36 5.84L7.36 5.84Q7.28 5.84 7.15 5.84L7.15 5.84L7.15 5.84Q7.03 5.84 6.96 5.80L6.96 5.80L6.96 5.80Q6.90 5.77 6.89 5.67L6.89 5.67L6.89 5.67Q6.88 5.59 6.91 5.54L6.91 5.54L6.91 5.54Q6.96 5.46 7.15 5.43L7.15 5.43L7.15 5.43Q7.17 5.43 7.23 5.43L7.23 5.43L7.23 5.43Q7.51 5.42 7.78 5.45L7.78 5.45L7.78 5.45Q8.05 5.48 8.34 5.46L8.34 5.46L8.34 5.46Q8.46 5.46 8.57 5.44L8.57 5.44L8.57 5.44Q8.68 5.43 8.80 5.43L8.80 5.43L8.80 5.43Q9.03 5.43 9.26 5.43L9.26 5.43L9.26 5.43Q9.49 5.43 9.71 5.42L9.71 5.42L9.71 5.42Q9.83 5.42 9.92 5.43L9.92 5.43L9.92 5.43Q10.00 5.43 10.06 5.46L10.06 5.46L10.06 5.46Q10.27 5.61 10.17 5.75ZM14.66 9.06L14.66 9.06L14.66 9.06Q14.98 8.88 15.04 9.19L15.04 9.19L15.04 9.19Q15.07 9.32 14.90 9.44L14.90 9.44L14.90 9.44Q14.83 9.50 14.76 9.53L14.76 9.53L14.76 9.53Q14.70 9.57 14.64 9.59L14.64 9.59L14.64 9.59Q14.49 9.66 14.36 9.69L14.36 9.69L14.36 9.69Q14.23 9.72 14.14 9.73L14.14 9.73L14.14 9.73Q13.96 9.75 13.76 9.75L13.76 9.75L13.76 9.75Q13.56 9.75 13.34 9.71L13.34 9.71L13.34 9.71Q12.90 9.65 12.63 9.41L12.63 9.41L12.63 9.41Q12.37 9.19 12.21 8.89L12.21 8.89L12.21 8.89Q12.04 8.59 11.94 8.29L11.94 8.29L11.93 8.24L11.93 8.24Q11.87 8.05 11.88 7.80L11.88 7.80L11.88 7.80Q11.90 7.56 11.89 7.35L11.89 7.35L11.89 7.35Q11.89 7.18 11.90 7.06L11.90 7.06L11.90 7.06Q11.91 6.93 11.94 6.84L11.94 6.84L11.94 6.84Q11.98 6.67 12.15 6.38L12.15 6.38L12.15 6.38Q12.34 6.05 12.57 5.81L12.57 5.81L12.57 5.81Q12.80 5.57 13.20 5.49L13.20 5.49L13.20 5.49Q13.30 5.48 13.56 5.41L13.56 5.41L13.56 5.41Q13.63 5.39 13.72 5.37L13.72 5.37L13.72 5.37Q13.82 5.36 13.93 5.37L13.93 5.37L13.93 5.37Q14.02 5.37 14.14 5.39L14.14 5.39L14.14 5.39Q14.26 5.41 14.42 5.44L14.42 5.44L14.42 5.44Q14.53 5.48 14.75 5.58L14.75 5.58L14.75 5.58Q14.96 5.67 15.00 5.82L15.00 5.82L15.00 5.82Q15.02 5.88 14.99 5.94L14.99 5.94L14.99 5.94Q14.93 6.04 14.85 6.06L14.85 6.06L14.85 6.06Q14.80 6.08 14.73 6.06L14.73 6.06L14.73 6.06Q14.66 6.05 14.55 6.00L14.55 6.00L14.55 6.00Q14.42 5.93 14.30 5.88L14.30 5.88L14.30 5.88Q14.18 5.83 14.06 5.81L14.06 5.81L14.06 5.81Q13.95 5.78 13.82 5.79L13.82 5.79L13.82 5.79Q13.69 5.80 13.54 5.84L13.54 5.84L13.54 5.84Q13.19 5.95 13.04 6.02L13.04 6.02L13.04 6.02Q12.89 6.10 12.69 6.41L12.69 6.41L12.69 6.41Q12.52 6.65 12.44 6.91L12.44 6.91L12.44 6.91Q12.35 7.18 12.34 7.45L12.34 7.45L12.34 7.45Q12.33 7.73 12.38 8.00L12.38 8.00L12.38 8.00Q12.44 8.28 12.56 8.53L12.56 8.53L12.56 8.54L12.57 8.54L12.57 8.54Q12.87 9.08 13.41 9.22L13.41 9.22L13.41 9.22Q13.81 9.32 14.03 9.26L14.03 9.26L14.03 9.26Q14.09 9.26 14.14 9.24L14.14 9.24L14.14 9.24Q14.20 9.23 14.26 9.21L14.26 9.21L14.26 9.21Q14.49 9.17 14.66 9.06ZM18.13 7.01L18.13 7.01L18.13 7.01Q18.38 7.01 18.62 7.02L18.62 7.02L18.62 7.02Q18.87 7.03 19.11 7.07L19.11 7.07L19.11 7.07Q19.30 7.10 19.41 6.99L19.41 6.99L19.41 6.99Q19.48 6.90 19.48 6.78L19.48 6.78L19.48 6.78Q19.48 6.66 19.48 6.55L19.48 6.55L19.48 6.55Q19.48 6.38 19.48 6.25L19.48 6.25L19.48 6.25Q19.48 6.13 19.48 6.04L19.48 6.04L19.48 6.04Q19.48 6.00 19.49 5.93L19.49 5.93L19.49 5.93Q19.49 5.87 19.49 5.79L19.49 5.79L19.49 5.79Q19.50 5.72 19.51 5.65L19.51 5.65L19.51 5.65Q19.52 5.58 19.54 5.54L19.54 5.54L19.54 5.54Q19.60 5.40 19.76 5.41L19.76 5.41L19.76 5.41Q19.94 5.43 19.94 5.72L19.94 5.72L19.94 5.72Q19.93 5.89 19.92 6.06L19.92 6.06L19.92 6.06Q19.91 6.23 19.92 6.40L19.92 6.40L19.92 6.41L19.92 6.41Q19.92 6.68 19.93 6.95L19.93 6.95L19.93 6.95Q19.95 7.23 19.96 7.49L19.96 7.49L19.96 7.49Q19.97 7.66 19.96 7.82L19.96 7.82L19.96 7.82Q19.95 7.99 19.95 8.16L19.95 8.16L19.95 8.16Q19.94 8.44 19.94 8.73L19.94 8.73L19.94 8.73Q19.94 9.01 19.94 9.30L19.94 9.30L19.94 9.30Q19.94 9.55 19.89 9.63L19.89 9.63L19.89 9.63Q19.87 9.67 19.78 9.69L19.78 9.69L19.78 9.69Q19.54 9.75 19.50 9.47L19.50 9.47L19.50 9.47Q19.47 9.13 19.48 8.77L19.48 8.77L19.48 8.77Q19.49 8.42 19.48 8.06L19.48 8.06L19.48 8.06Q19.47 7.93 19.44 7.77L19.44 7.77L19.44 7.77Q19.42 7.62 19.31 7.52L19.31 7.52L19.31 7.52Q19.21 7.44 18.96 7.44L18.96 7.44L18.96 7.44Q18.83 7.44 18.71 7.44L18.71 7.44L18.71 7.44Q18.59 7.45 18.47 7.44L18.47 7.44L18.08 7.44L18.08 7.44Q17.96 7.45 17.84 7.44L17.84 7.44L17.84 7.44Q17.72 7.43 17.60 7.42L17.60 7.42L17.60 7.42Q17.34 7.40 17.21 7.49L17.21 7.49L17.21 7.49Q17.05 7.63 17.05 7.95L17.05 7.95L17.05 7.95Q17.05 8.16 17.06 8.38L17.06 8.38L17.06 8.38Q17.06 8.59 17.06 8.80L17.06 8.80L17.06 8.80Q17.06 8.97 17.06 9.10L17.06 9.10L17.06 9.10Q17.05 9.22 17.05 9.31L17.05 9.31L17.05 9.31Q17.04 9.41 17.04 9.47L17.04 9.47L17.04 9.47Q17.03 9.54 17.01 9.59L17.01 9.59L17.01 9.59Q16.94 9.73 16.78 9.69L16.78 9.69L16.78 9.69Q16.61 9.67 16.61 9.44L16.61 9.44L16.61 9.44Q16.61 9.21 16.61 9.00L16.61 9.00L16.61 9.00Q16.61 8.78 16.62 8.55L16.62 8.55L16.62 8.55Q16.63 8.34 16.62 8.12L16.62 8.12L16.62 8.12Q16.61 7.91 16.61 7.69L16.61 7.69L16.61 7.69Q16.61 7.34 16.62 6.99L16.62 6.99L16.62 6.99Q16.63 6.64 16.63 6.30L16.63 6.30L16.63 6.30Q16.63 6.24 16.63 6.15L16.63 6.15L16.63 6.15Q16.62 6.05 16.61 5.91L16.61 5.91L16.61 5.91Q16.60 5.61 16.63 5.54L16.63 5.54L16.63 5.54Q16.72 5.41 16.84 5.41L16.84 5.41L16.84 5.41Q17.04 5.42 17.06 5.74L17.06 5.74L17.06 5.74Q17.07 5.82 17.07 5.88L17.07 5.88L17.07 5.88Q17.08 5.94 17.08 5.99L17.08 5.99L17.08 5.99Q17.08 6.02 17.08 6.08L17.08 6.08L17.08 6.08Q17.08 6.15 17.06 6.23L17.06 6.23L17.06 6.23Q17.05 6.33 17.04 6.43L17.04 6.43L17.04 6.43Q17.02 6.54 17.02 6.63L17.02 6.63L17.02 6.63Q17.01 6.85 17.10 6.93L17.10 6.93L17.10 6.93Q17.21 7.01 17.38 6.98L17.38 6.98L17.38 6.98Q17.47 6.97 17.54 6.97L17.54 6.97L17.54 6.97Q17.61 6.97 17.66 6.97L17.66 6.97L17.66 6.97Q17.77 6.98 17.89 6.99L17.89 6.99L17.89 6.99Q18.01 7.01 18.13 7.01ZM21.85 9.29L21.85 9.29L21.85 9.29Q21.84 8.87 21.84 8.46L21.84 8.46L21.84 8.46Q21.85 8.04 21.85 7.62L21.85 7.62L21.85 7.38L21.85 7.38Q21.85 7.20 21.84 7.01L21.84 7.01L21.84 7.01Q21.83 6.82 21.84 6.64L21.84 6.64L21.84 6.64Q21.85 6.43 21.85 6.23L21.85 6.23L21.85 6.23Q21.85 6.03 21.85 5.82L21.85 5.82L21.85 5.82Q21.85 5.58 21.97 5.48L21.97 5.48L21.97 5.48Q22.06 5.41 22.29 5.41L22.29 5.41L22.29 5.41Q22.40 5.41 22.49 5.40L22.49 5.40L22.49 5.40Q22.57 5.40 22.63 5.40L22.63 5.40L22.63 5.40Q22.90 5.39 23.17 5.40L23.17 5.40L23.17 5.40Q23.43 5.41 23.70 5.41L23.70 5.41L23.70 5.41Q23.84 5.40 23.99 5.40L23.99 5.40L23.99 5.40Q24.13 5.39 24.27 5.41L24.27 5.41L24.62 5.43L24.62 5.43Q24.68 5.43 24.72 5.43L24.72 5.43L24.72 5.43Q24.77 5.43 24.80 5.45L24.80 5.45L24.80 5.45Q24.94 5.52 24.94 5.66L24.94 5.66L24.94 5.66Q24.93 5.72 24.89 5.76L24.89 5.76L24.89 5.76Q24.85 5.80 24.80 5.82L24.80 5.82L24.80 5.82Q24.75 5.84 24.69 5.84L24.69 5.84L24.69 5.84Q24.64 5.85 24.60 5.85L24.60 5.85L24.60 5.85Q24.18 5.85 23.77 5.83L23.77 5.83L23.77 5.83Q23.73 5.82 23.67 5.82L23.67 5.82L23.67 5.82Q23.60 5.82 23.53 5.82L23.53 5.82L23.13 5.82L23.13 5.82Q22.98 5.82 22.85 5.83L22.85 5.83L22.85 5.83Q22.73 5.83 22.65 5.83L22.65 5.83L22.65 5.83Q22.53 5.84 22.46 5.86L22.46 5.86L22.46 5.86Q22.38 5.89 22.35 5.94L22.35 5.94L22.35 5.94Q22.29 6.02 22.31 6.15L22.31 6.15L22.31 6.15Q22.31 6.20 22.31 6.24L22.31 6.24L22.31 6.24Q22.31 6.28 22.30 6.32L22.30 6.32L22.30 6.32Q22.29 6.40 22.28 6.49L22.28 6.49L22.28 6.49Q22.27 6.58 22.28 6.69L22.28 6.69L22.28 6.69Q22.28 6.88 22.43 7.01L22.43 7.01L22.43 7.01Q22.55 7.12 22.87 7.10L22.87 7.10L22.87 7.10Q23.02 7.10 23.16 7.08L23.16 7.08L23.16 7.08Q23.30 7.06 23.44 7.07L23.44 7.07L23.44 7.07Q23.50 7.07 23.60 7.07L23.60 7.07L23.60 7.07Q23.70 7.08 23.84 7.07L23.84 7.07L23.84 7.07Q24.11 7.06 24.21 7.16L24.21 7.16L24.21 7.16Q24.24 7.21 24.23 7.32L24.23 7.32L24.23 7.32Q24.21 7.44 24.04 7.47L24.04 7.47L24.04 7.47Q23.88 7.50 23.79 7.50L23.79 7.50L23.79 7.50Q23.67 7.51 23.55 7.50L23.55 7.50L23.55 7.50Q23.43 7.50 23.30 7.51L23.30 7.51L23.30 7.51Q23.15 7.52 23.00 7.51L23.00 7.51L23.00 7.51Q22.84 7.51 22.67 7.49L22.67 7.49L22.67 7.49Q22.65 7.49 22.62 7.49L22.62 7.49L22.62 7.49Q22.59 7.49 22.57 7.49L22.57 7.49L22.57 7.49L22.57 7.49Q22.49 7.47 22.42 7.52L22.42 7.52L22.42 7.52Q22.29 7.59 22.28 7.78L22.28 7.78L22.28 7.78Q22.26 7.96 22.28 8.09L22.28 8.09L22.28 8.09Q22.29 8.16 22.29 8.22L22.29 8.22L22.29 8.22Q22.29 8.29 22.29 8.33L22.29 8.33L22.29 8.33Q22.27 8.44 22.26 8.53L22.26 8.53L22.26 8.53Q22.25 8.63 22.24 8.74L22.24 8.74L22.24 8.74Q22.22 9.00 22.31 9.13L22.31 9.13L22.31 9.13Q22.42 9.28 22.71 9.28L22.71 9.28L22.71 9.28Q22.93 9.28 23.17 9.27L23.17 9.27L23.17 9.27Q23.40 9.26 23.63 9.25L23.63 9.25L23.63 9.25Q23.84 9.24 24.07 9.26L24.07 9.26L24.07 9.26Q24.29 9.28 24.51 9.28L24.51 9.28L24.51 9.28Q24.59 9.28 24.73 9.28L24.73 9.28L24.73 9.28Q24.86 9.28 24.94 9.32L24.94 9.32L24.94 9.32Q25.01 9.36 25.01 9.44L25.01 9.44L25.01 9.44Q25.09 9.69 24.80 9.70L24.80 9.70L24.80 9.70Q24.35 9.72 23.92 9.71L23.92 9.71L23.92 9.71Q23.48 9.71 23.04 9.71L23.04 9.71L23.04 9.71Q23.02 9.71 22.99 9.72L22.99 9.72L22.99 9.72Q22.97 9.72 22.95 9.72L22.95 9.72L22.95 9.72Q22.79 9.72 22.68 9.72L22.68 9.72L22.68 9.72Q22.57 9.72 22.49 9.71L22.49 9.71L22.49 9.71Q22.44 9.71 22.38 9.71L22.38 9.71L22.38 9.71Q22.31 9.71 22.23 9.70L22.23 9.70L22.23 9.70Q22.16 9.69 22.12 9.69L22.12 9.69L22.12 9.69Q22.07 9.68 22.05 9.67L22.05 9.67L22.05 9.67Q21.85 9.61 21.85 9.29ZM26.94 9.56L26.94 9.56L26.94 9.56Q26.91 9.68 26.73 9.70L26.73 9.70L26.73 9.70Q26.54 9.69 26.54 9.49L26.54 9.49L26.54 9.49Q26.54 8.96 26.51 8.41L26.51 8.41L26.51 8.41Q26.49 7.87 26.54 7.33L26.54 7.33L26.54 7.33L26.54 7.33Q26.54 7.17 26.55 7.02L26.55 7.02L26.55 7.02Q26.55 6.87 26.54 6.73L26.54 6.73L26.48 6.21L26.48 6.21Q26.46 5.99 26.55 5.74L26.55 5.74L26.55 5.74Q26.62 5.56 26.74 5.52L26.74 5.52L26.74 5.52Q26.83 5.50 26.93 5.62L26.93 5.62L26.93 5.62Q27.03 5.72 27.08 5.80L27.08 5.80L27.08 5.80Q27.17 5.93 27.26 6.03L27.26 6.03L27.26 6.03Q27.35 6.13 27.44 6.22L27.44 6.22L27.44 6.22Q27.51 6.31 27.59 6.37L27.59 6.37L27.59 6.37Q27.67 6.44 27.75 6.52L27.75 6.52L27.75 6.52Q27.82 6.59 27.90 6.70L27.90 6.70L27.90 6.70Q27.98 6.80 28.08 6.95L28.08 6.95L28.38 7.41L28.38 7.41Q28.41 7.46 28.45 7.52L28.45 7.52L28.45 7.52Q28.49 7.58 28.54 7.66L28.54 7.66L28.55 7.67L28.55 7.67Q28.69 7.86 28.85 8.03L28.85 8.03L28.85 8.03Q28.92 8.11 29.00 8.19L29.00 8.19L29.00 8.19Q29.07 8.26 29.16 8.33L29.16 8.33L29.16 8.33Q29.23 8.42 29.33 8.39L29.33 8.39L29.33 8.39Q29.49 8.35 29.48 8.07L29.48 8.07L29.48 8.07Q29.48 8.00 29.47 7.93L29.47 7.93L29.47 7.93Q29.46 7.85 29.46 7.78L29.46 7.78L29.46 7.78Q29.46 7.72 29.45 7.67L29.45 7.67L29.45 7.67Q29.44 7.62 29.44 7.56L29.44 7.56L29.44 7.56Q29.44 7.53 29.44 7.50L29.44 7.50L29.44 7.50Q29.44 7.46 29.44 7.42L29.44 7.42L29.44 7.42Q29.46 6.82 29.39 6.30L29.39 6.30L29.39 6.30Q29.39 6.27 29.39 6.19L29.39 6.19L29.39 6.19Q29.39 6.11 29.40 5.99L29.40 5.99L29.40 5.99Q29.41 5.84 29.44 5.67L29.44 5.67L29.44 5.67Q29.46 5.42 29.66 5.42L29.66 5.42L29.66 5.42Q29.88 5.42 29.88 5.68L29.88 5.68L29.88 5.68Q29.89 5.89 29.90 6.11L29.90 6.11L29.90 6.11Q29.91 6.32 29.91 6.54L29.91 6.54L29.91 6.54Q29.91 6.85 29.89 7.16L29.89 7.16L29.89 7.16Q29.87 7.48 29.89 7.79L29.89 7.79L29.89 7.79Q29.90 8.00 29.90 8.21L29.90 8.21L29.90 8.21Q29.89 8.42 29.89 8.62L29.89 8.62L29.89 8.62Q29.89 8.74 29.89 8.85L29.89 8.85L29.89 8.85Q29.89 8.96 29.89 9.06L29.89 9.06L29.89 9.34L29.89 9.34Q29.89 9.38 29.88 9.42L29.88 9.42L29.88 9.42Q29.88 9.46 29.88 9.50L29.88 9.50L29.88 9.50Q29.87 9.50 29.87 9.51L29.87 9.51L29.87 9.51Q29.87 9.52 29.87 9.52L29.87 9.52L29.87 9.52Q29.79 9.62 29.63 9.62L29.63 9.62L29.63 9.62Q29.45 9.63 29.35 9.50L29.35 9.50L29.35 9.50Q29.25 9.37 29.17 9.22L29.17 9.22L29.17 9.22Q29.08 9.07 28.98 8.93L28.98 8.93L28.98 8.93Q28.85 8.76 28.71 8.58L28.71 8.58L28.71 8.58Q28.56 8.39 28.38 8.18L28.38 8.18L28.38 8.18Q28.31 8.10 28.19 7.90L28.19 7.90L27.95 7.52L27.95 7.52Q27.86 7.38 27.77 7.24L27.77 7.24L27.77 7.24Q27.69 7.10 27.59 6.97L27.59 6.97L27.59 6.97Q27.55 6.92 27.50 6.87L27.50 6.87L27.50 6.87Q27.45 6.81 27.40 6.77L27.40 6.77L27.40 6.77Q27.34 6.73 27.28 6.71L27.28 6.71L27.28 6.71Q27.21 6.69 27.14 6.71L27.14 6.71L27.14 6.71Q26.95 6.76 26.97 7.08L26.97 7.08L26.97 7.08Q26.97 7.31 26.98 7.52L26.98 7.52L26.98 7.52Q26.98 7.72 27.00 7.90L27.00 7.90L27.00 7.90Q27.01 8.05 26.99 8.19L26.99 8.19L26.99 8.19Q26.97 8.33 26.97 8.47L26.97 8.47L26.97 9.00L26.97 9.00Q26.97 9.17 26.96 9.31L26.96 9.31L26.96 9.31Q26.95 9.45 26.94 9.56ZM34.57 9.06L34.57 9.06L34.57 9.06Q34.89 8.88 34.95 9.19L34.95 9.19L34.95 9.19Q34.97 9.32 34.81 9.44L34.81 9.44L34.81 9.44Q34.73 9.50 34.67 9.53L34.67 9.53L34.67 9.53Q34.60 9.57 34.55 9.59L34.55 9.59L34.55 9.59Q34.39 9.66 34.27 9.69L34.27 9.69L34.27 9.69Q34.14 9.72 34.04 9.73L34.04 9.73L34.04 9.73Q33.87 9.75 33.67 9.75L33.67 9.75L33.67 9.75Q33.47 9.75 33.25 9.71L33.25 9.71L33.25 9.71Q32.81 9.65 32.53 9.41L32.53 9.41L32.53 9.41Q32.28 9.19 32.12 8.89L32.12 8.89L32.12 8.89Q31.95 8.59 31.85 8.29L31.85 8.29L31.83 8.24L31.83 8.24Q31.77 8.05 31.79 7.80L31.79 7.80L31.79 7.80Q31.81 7.56 31.80 7.35L31.80 7.35L31.80 7.35Q31.80 7.18 31.81 7.06L31.81 7.06L31.81 7.06Q31.81 6.93 31.84 6.84L31.84 6.84L31.84 6.84Q31.89 6.67 32.06 6.38L32.06 6.38L32.06 6.38Q32.25 6.05 32.48 5.81L32.48 5.81L32.48 5.81Q32.71 5.57 33.11 5.49L33.11 5.49L33.11 5.49Q33.21 5.48 33.46 5.41L33.46 5.41L33.46 5.41Q33.54 5.39 33.63 5.37L33.63 5.37L33.63 5.37Q33.72 5.36 33.84 5.37L33.84 5.37L33.84 5.37Q33.93 5.37 34.05 5.39L34.05 5.39L34.05 5.39Q34.17 5.41 34.32 5.44L34.32 5.44L34.32 5.44Q34.43 5.48 34.66 5.58L34.66 5.58L34.66 5.58Q34.87 5.67 34.91 5.82L34.91 5.82L34.91 5.82Q34.92 5.88 34.90 5.94L34.90 5.94L34.90 5.94Q34.84 6.04 34.75 6.06L34.75 6.06L34.75 6.06Q34.71 6.08 34.63 6.06L34.63 6.06L34.63 6.06Q34.56 6.05 34.46 6.00L34.46 6.00L34.46 6.00Q34.32 5.93 34.21 5.88L34.21 5.88L34.21 5.88Q34.09 5.83 33.97 5.81L33.97 5.81L33.97 5.81Q33.85 5.78 33.73 5.79L33.73 5.79L33.73 5.79Q33.60 5.80 33.45 5.84L33.45 5.84L33.45 5.84Q33.09 5.95 32.95 6.02L32.95 6.02L32.95 6.02Q32.80 6.10 32.59 6.41L32.59 6.41L32.59 6.41Q32.43 6.65 32.34 6.91L32.34 6.91L32.34 6.91Q32.26 7.18 32.25 7.45L32.25 7.45L32.25 7.45Q32.23 7.73 32.29 8.00L32.29 8.00L32.29 8.00Q32.35 8.28 32.47 8.53L32.47 8.53L32.47 8.54L32.48 8.54L32.48 8.54Q32.77 9.08 33.32 9.22L33.32 9.22L33.32 9.22Q33.71 9.32 33.93 9.26L33.93 9.26L33.93 9.26Q34.00 9.26 34.05 9.24L34.05 9.24L34.05 9.24Q34.10 9.23 34.17 9.21L34.17 9.21L34.17 9.21Q34.40 9.17 34.57 9.06ZM37.93 9.69L37.93 9.69L37.93 9.69Q37.79 9.65 37.65 9.58L37.65 9.58L37.65 9.58Q37.51 9.52 37.38 9.43L37.38 9.43L37.38 9.43Q37.24 9.34 37.13 9.24L37.13 9.24L37.13 9.24Q37.01 9.13 36.93 9.01L36.93 9.01L36.93 9.01Q36.82 8.84 36.77 8.66L36.77 8.66L36.77 8.66Q36.72 8.48 36.63 8.29L36.63 8.29L36.63 8.29Q36.57 8.13 36.56 7.96L36.56 7.96L36.56 7.96Q36.55 7.88 36.54 7.79L36.54 7.79L36.54 7.79Q36.53 7.70 36.53 7.62L36.53 7.62L36.53 7.62Q36.52 7.54 36.52 7.48L36.52 7.48L36.52 7.48Q36.52 7.42 36.52 7.38L36.52 7.38L36.52 7.38Q36.52 7.25 36.53 7.11L36.53 7.11L36.53 7.11Q36.55 6.97 36.59 6.82L36.59 6.82L36.59 6.82Q36.59 6.77 36.63 6.69L36.63 6.69L36.63 6.69Q36.70 6.49 36.80 6.31L36.80 6.31L36.80 6.31Q36.91 6.13 37.04 5.97L37.04 5.97L37.04 5.97Q37.31 5.67 37.79 5.43L37.79 5.43L37.79 5.43Q38.01 5.34 38.25 5.35L38.25 5.35L38.25 5.35Q38.40 5.36 38.55 5.39L38.55 5.39L38.55 5.39Q38.67 5.41 38.76 5.42L38.76 5.42L38.76 5.42Q38.86 5.43 38.92 5.44L38.92 5.44L38.92 5.44Q39.45 5.50 39.85 5.91L39.85 5.91L39.85 5.91Q39.94 6.00 40.02 6.10L40.02 6.10L40.02 6.10Q40.10 6.21 40.17 6.33L40.17 6.33L40.21 6.38L40.21 6.38Q40.22 6.41 40.22 6.42L40.22 6.42L40.22 6.42Q40.23 6.43 40.24 6.45L40.24 6.45L40.24 6.45Q40.35 6.72 40.45 7.13L40.45 7.13L40.45 7.13Q40.54 7.51 40.48 7.83L40.48 7.83L40.48 7.83Q40.43 8.02 40.37 8.19L40.37 8.19L40.37 8.19Q40.31 8.36 40.26 8.53L40.26 8.53L40.26 8.53Q40.00 9.45 39.06 9.69L39.06 9.69L39.01 9.70L39.01 9.70Q38.95 9.71 38.87 9.73L38.87 9.73L38.87 9.73Q38.79 9.74 38.68 9.75L38.68 9.75L38.68 9.75Q38.50 9.78 38.31 9.76L38.31 9.76L38.31 9.76Q38.12 9.75 37.93 9.69ZM38.62 5.78L38.62 5.78L38.62 5.78Q38.25 5.78 37.95 5.87L37.95 5.87L37.95 5.87Q37.65 5.95 37.41 6.19L37.41 6.19L37.41 6.19Q37.08 6.52 37.00 6.92L37.00 6.92L37.00 6.92Q36.91 7.32 37.00 7.81L37.00 7.81L37.06 8.15L37.06 8.15Q37.08 8.24 37.09 8.30L37.09 8.30L37.09 8.30Q37.11 8.36 37.11 8.37L37.11 8.37L37.11 8.37Q37.15 8.52 37.28 8.66L37.28 8.66L37.28 8.66Q37.40 8.80 37.50 8.90L37.50 8.90L37.50 8.90Q37.56 8.96 37.61 9.02L37.61 9.02L37.61 9.02Q37.67 9.08 37.73 9.13L37.73 9.13L37.73 9.13Q37.83 9.21 38.07 9.29L38.07 9.29L38.08 9.29L38.08 9.29Q38.21 9.32 38.37 9.31L38.37 9.31L38.37 9.31Q38.53 9.30 38.73 9.26L38.73 9.26L38.73 9.26Q38.82 9.23 38.92 9.22L38.92 9.22L38.92 9.22Q39.02 9.21 39.12 9.18L39.12 9.18L39.12 9.18Q39.38 9.12 39.55 8.91L39.55 8.91L39.55 8.91L39.55 8.90L39.55 8.90Q39.66 8.77 39.74 8.57L39.74 8.57L39.74 8.57Q39.81 8.37 39.84 8.32L39.84 8.32L39.84 8.32Q40.18 7.65 39.94 6.87L39.94 6.87L39.94 6.86L39.94 6.86Q39.91 6.79 39.88 6.72L39.88 6.72L39.88 6.72Q39.85 6.65 39.81 6.58L39.81 6.58L39.81 6.58Q39.54 6.18 39.17 6.00L39.17 6.00L39.17 6.00Q39.16 6.00 39.11 5.97L39.11 5.97L39.11 5.97Q39.06 5.94 38.97 5.89L38.97 5.89L38.97 5.89Q38.85 5.81 38.62 5.78L38.62 5.78ZM45.45 5.42L45.45 5.42L45.45 5.42Q45.66 5.41 45.66 5.63L45.66 5.63L45.66 5.63Q45.66 5.91 45.65 6.19L45.65 6.19L45.65 6.19Q45.65 6.46 45.62 6.75L45.62 6.75L45.62 6.75Q45.58 7.01 45.61 7.27L45.61 7.27L45.61 7.27Q45.64 7.53 45.64 7.79L45.64 7.79L45.64 7.84L45.62 8.31L45.62 8.31Q45.60 8.46 45.58 8.57L45.58 8.57L45.58 8.57Q45.56 8.69 45.55 8.76L45.55 8.76L45.53 8.79L45.52 8.84L45.52 8.85L45.52 8.85Q45.50 8.93 45.45 9.01L45.45 9.01L45.45 9.01Q45.39 9.10 45.33 9.18L45.33 9.18L45.33 9.18Q45.26 9.26 45.19 9.32L45.19 9.32L45.19 9.32Q45.11 9.39 45.05 9.45L45.05 9.45L45.05 9.45Q44.93 9.55 44.80 9.61L44.80 9.61L44.80 9.61Q44.66 9.67 44.51 9.70L44.51 9.70L44.51 9.70Q44.36 9.73 44.20 9.74L44.20 9.74L44.20 9.74Q44.05 9.75 43.91 9.75L43.91 9.75L43.91 9.75Q43.65 9.75 43.42 9.69L43.42 9.69L43.42 9.69Q43.18 9.63 42.95 9.50L42.95 9.50L42.95 9.50Q42.94 9.48 42.94 9.47L42.94 9.47L42.94 9.47Q42.92 9.47 42.90 9.45L42.90 9.45L42.90 9.45Q42.89 9.44 42.88 9.43L42.88 9.43L42.88 9.43Q42.85 9.41 42.84 9.40L42.84 9.40L42.84 9.40Q42.83 9.39 42.81 9.37L42.81 9.37L42.81 9.37Q42.47 9.01 42.38 8.47L42.38 8.47L42.38 8.47Q42.33 8.20 42.32 7.95L42.32 7.95L42.32 7.95Q42.31 7.69 42.32 7.44L42.32 7.44L42.32 7.44Q42.33 7.38 42.33 7.32L42.33 7.32L42.33 7.32Q42.34 7.27 42.35 7.21L42.35 7.21L42.35 7.21Q42.36 7.12 42.35 7.05L42.35 7.05L42.35 7.05Q42.35 6.97 42.34 6.90L42.34 6.90L42.34 6.90Q42.30 6.36 42.32 5.63L42.32 5.63L42.32 5.63Q42.33 5.48 42.50 5.42L42.50 5.42L42.50 5.42Q42.64 5.38 42.73 5.45L42.73 5.45L42.73 5.45Q42.79 5.50 42.79 5.57L42.79 5.57L42.79 5.57Q42.79 5.67 42.79 5.82L42.79 5.82L42.79 5.82Q42.79 5.97 42.78 6.17L42.78 6.17L42.78 6.17Q42.78 6.34 42.77 6.51L42.77 6.51L42.77 6.51Q42.75 6.68 42.75 6.84L42.75 6.84L42.75 6.84Q42.75 7.05 42.74 7.24L42.74 7.24L42.74 7.24Q42.72 7.44 42.72 7.64L42.72 7.64L42.72 7.64Q42.72 8.02 42.85 8.50L42.85 8.50L42.85 8.50Q42.86 8.56 42.88 8.61L42.88 8.61L42.88 8.61Q42.90 8.66 42.91 8.72L42.91 8.72L42.91 8.72Q43.01 9.04 43.22 9.16L43.22 9.16L43.22 9.16Q43.38 9.26 43.81 9.28L43.81 9.28L43.81 9.28Q43.87 9.29 43.92 9.30L43.92 9.30L43.92 9.30Q43.98 9.31 44.04 9.31L44.04 9.31L44.04 9.31L44.05 9.31L44.05 9.31Q44.38 9.31 44.63 9.19L44.63 9.19L44.63 9.19Q44.87 9.08 45.04 8.79L45.04 8.79L45.04 8.79Q45.18 8.56 45.18 8.08L45.18 8.08L45.18 8.08Q45.18 7.99 45.18 7.93L45.18 7.93L45.18 7.93Q45.18 7.86 45.19 7.82L45.19 7.82L45.19 7.82Q45.25 7.21 45.17 6.55L45.17 6.55L45.17 6.55Q45.16 6.46 45.19 6.22L45.19 6.22L45.19 6.22Q45.21 6.13 45.21 6.05L45.21 6.05L45.21 6.05Q45.22 5.97 45.22 5.92L45.22 5.92L45.22 5.92Q45.22 5.63 45.26 5.52L45.26 5.52L45.26 5.52Q45.32 5.42 45.45 5.42ZM47.90 9.56L47.90 9.56L47.90 9.56Q47.87 9.68 47.69 9.70L47.69 9.70L47.69 9.70Q47.50 9.69 47.50 9.49L47.50 9.49L47.50 9.49Q47.50 8.96 47.47 8.41L47.47 8.41L47.47 8.41Q47.45 7.87 47.50 7.33L47.50 7.33L47.50 7.33L47.50 7.33Q47.50 7.17 47.51 7.02L47.51 7.02L47.51 7.02Q47.51 6.87 47.50 6.73L47.50 6.73L47.44 6.21L47.44 6.21Q47.42 5.99 47.51 5.74L47.51 5.74L47.51 5.74Q47.58 5.56 47.69 5.52L47.69 5.52L47.69 5.52Q47.79 5.50 47.89 5.62L47.89 5.62L47.89 5.62Q47.99 5.72 48.04 5.80L48.04 5.80L48.04 5.80Q48.13 5.93 48.22 6.03L48.22 6.03L48.22 6.03Q48.31 6.13 48.40 6.22L48.40 6.22L48.40 6.22Q48.47 6.31 48.55 6.37L48.55 6.37L48.55 6.37Q48.63 6.44 48.71 6.52L48.71 6.52L48.71 6.52Q48.77 6.59 48.86 6.70L48.86 6.70L48.86 6.70Q48.94 6.80 49.03 6.95L49.03 6.95L49.33 7.41L49.33 7.41Q49.37 7.46 49.41 7.52L49.41 7.52L49.41 7.52Q49.44 7.58 49.50 7.66L49.50 7.66L49.51 7.67L49.51 7.67Q49.65 7.86 49.81 8.03L49.81 8.03L49.81 8.03Q49.88 8.11 49.96 8.19L49.96 8.19L49.96 8.19Q50.03 8.26 50.11 8.33L50.11 8.33L50.11 8.33Q50.19 8.42 50.29 8.39L50.29 8.39L50.29 8.39Q50.45 8.35 50.44 8.07L50.44 8.07L50.44 8.07Q50.44 8.00 50.43 7.93L50.43 7.93L50.43 7.93Q50.42 7.85 50.42 7.78L50.42 7.78L50.42 7.78Q50.42 7.72 50.41 7.67L50.41 7.67L50.41 7.67Q50.40 7.62 50.40 7.56L50.40 7.56L50.40 7.56Q50.40 7.53 50.40 7.50L50.40 7.50L50.40 7.50Q50.39 7.46 50.39 7.42L50.39 7.42L50.39 7.42Q50.42 6.82 50.35 6.30L50.35 6.30L50.35 6.30Q50.35 6.27 50.35 6.19L50.35 6.19L50.35 6.19Q50.35 6.11 50.36 5.99L50.36 5.99L50.36 5.99Q50.37 5.84 50.40 5.67L50.40 5.67L50.40 5.67Q50.42 5.42 50.62 5.42L50.62 5.42L50.62 5.42Q50.84 5.42 50.84 5.68L50.84 5.68L50.84 5.68Q50.85 5.89 50.86 6.11L50.86 6.11L50.86 6.11Q50.87 6.32 50.87 6.54L50.87 6.54L50.87 6.54Q50.87 6.85 50.85 7.16L50.85 7.16L50.85 7.16Q50.83 7.48 50.85 7.79L50.85 7.79L50.85 7.79Q50.86 8.00 50.86 8.21L50.86 8.21L50.86 8.21Q50.85 8.42 50.85 8.62L50.85 8.62L50.85 8.62Q50.85 8.74 50.85 8.85L50.85 8.85L50.85 8.85Q50.85 8.96 50.85 9.06L50.85 9.06L50.85 9.34L50.85 9.34Q50.85 9.38 50.84 9.42L50.84 9.42L50.84 9.42Q50.84 9.46 50.84 9.50L50.84 9.50L50.84 9.50Q50.83 9.50 50.83 9.51L50.83 9.51L50.83 9.51Q50.83 9.52 50.83 9.52L50.83 9.52L50.83 9.52Q50.75 9.62 50.59 9.62L50.59 9.62L50.59 9.62Q50.41 9.63 50.31 9.50L50.31 9.50L50.31 9.50Q50.21 9.37 50.12 9.22L50.12 9.22L50.12 9.22Q50.04 9.07 49.94 8.93L49.94 8.93L49.94 8.93Q49.81 8.76 49.67 8.58L49.67 8.58L49.67 8.58Q49.52 8.39 49.34 8.18L49.34 8.18L49.34 8.18Q49.27 8.10 49.15 7.90L49.15 7.90L48.91 7.52L48.91 7.52Q48.82 7.38 48.73 7.24L48.73 7.24L48.73 7.24Q48.64 7.10 48.55 6.97L48.55 6.97L48.55 6.97Q48.51 6.92 48.46 6.87L48.46 6.87L48.46 6.87Q48.41 6.81 48.36 6.77L48.36 6.77L48.36 6.77Q48.30 6.73 48.23 6.71L48.23 6.71L48.23 6.71Q48.17 6.69 48.10 6.71L48.10 6.71L48.10 6.71Q47.91 6.76 47.93 7.08L47.93 7.08L47.93 7.08Q47.93 7.31 47.94 7.52L47.94 7.52L47.94 7.52Q47.94 7.72 47.95 7.90L47.95 7.90L47.95 7.90Q47.97 8.05 47.95 8.19L47.95 8.19L47.95 8.19Q47.93 8.33 47.93 8.47L47.93 8.47L47.93 9.00L47.93 9.00Q47.93 9.17 47.92 9.31L47.92 9.31L47.92 9.31Q47.91 9.45 47.90 9.56ZM56.04 5.75L56.04 5.75L56.04 5.75Q55.95 5.86 55.73 5.84L55.73 5.84L55.38 5.82L55.38 5.82Q55.28 5.82 55.19 5.81L55.19 5.81L55.19 5.81Q55.09 5.80 54.99 5.80L54.99 5.80L54.99 5.80Q54.78 5.80 54.69 5.89L54.69 5.89L54.69 5.89Q54.61 5.98 54.61 6.19L54.61 6.19L54.61 6.19Q54.61 6.28 54.62 6.37L54.62 6.37L54.62 6.37Q54.63 6.47 54.63 6.56L54.63 6.56L54.63 6.56Q54.64 6.79 54.64 6.96L54.64 6.96L54.64 6.96Q54.65 7.12 54.65 7.24L54.65 7.24L54.65 7.24Q54.65 7.59 54.61 7.94L54.61 7.94L54.61 7.94Q54.58 8.10 54.61 8.26L54.61 8.26L54.61 8.26Q54.63 8.43 54.63 8.59L54.63 8.59L54.63 8.59Q54.64 8.76 54.64 8.89L54.64 8.89L54.64 8.89Q54.65 9.02 54.65 9.11L54.65 9.11L54.65 9.11Q54.65 9.15 54.65 9.20L54.65 9.20L54.65 9.20Q54.65 9.26 54.64 9.35L54.64 9.35L54.64 9.35Q54.63 9.54 54.61 9.58L54.61 9.58L54.61 9.58Q54.52 9.73 54.38 9.69L54.38 9.69L54.38 9.69Q54.20 9.65 54.20 9.43L54.20 9.43L54.20 9.43Q54.20 9.22 54.21 9.01L54.21 9.01L54.21 9.01Q54.23 8.80 54.24 8.60L54.24 8.60L54.24 8.60Q54.26 8.36 54.24 8.11L54.24 8.11L54.24 8.11Q54.22 7.87 54.22 7.62L54.22 7.62L54.22 7.62Q54.22 7.40 54.23 7.17L54.23 7.17L54.23 7.17Q54.25 6.94 54.26 6.71L54.26 6.71L54.26 6.71Q54.26 6.27 54.11 6.08L54.11 6.08L54.11 6.08Q54.04 5.99 53.93 5.94L53.93 5.94L53.93 5.94Q53.83 5.89 53.70 5.87L53.70 5.87L53.70 5.87Q53.57 5.86 53.45 5.85L53.45 5.85L53.45 5.85Q53.34 5.84 53.23 5.84L53.23 5.84L53.23 5.84Q53.15 5.84 53.02 5.84L53.02 5.84L53.02 5.84Q52.90 5.84 52.83 5.80L52.83 5.80L52.83 5.80Q52.77 5.77 52.76 5.67L52.76 5.67L52.76 5.67Q52.75 5.59 52.78 5.54L52.78 5.54L52.78 5.54Q52.83 5.46 53.02 5.43L53.02 5.43L53.02 5.43Q53.04 5.43 53.09 5.43L53.09 5.43L53.09 5.43Q53.38 5.42 53.65 5.45L53.65 5.45L53.65 5.45Q53.92 5.48 54.21 5.46L54.21 5.46L54.21 5.46Q54.33 5.46 54.44 5.44L54.44 5.44L54.44 5.44Q54.55 5.43 54.67 5.43L54.67 5.43L54.67 5.43Q54.90 5.43 55.13 5.43L55.13 5.43L55.13 5.43Q55.36 5.43 55.58 5.42L55.58 5.42L55.58 5.42Q55.70 5.42 55.78 5.43L55.78 5.43L55.78 5.43Q55.87 5.43 55.93 5.46L55.93 5.46L55.93 5.46Q56.14 5.61 56.04 5.75ZM57.76 9.29L57.76 9.29L57.76 9.29Q57.75 8.87 57.75 8.46L57.75 8.46L57.75 8.46Q57.76 8.04 57.76 7.62L57.76 7.62L57.76 7.38L57.76 7.38Q57.76 7.20 57.75 7.01L57.75 7.01L57.75 7.01Q57.74 6.82 57.75 6.64L57.75 6.64L57.75 6.64Q57.76 6.43 57.76 6.23L57.76 6.23L57.76 6.23Q57.76 6.03 57.76 5.82L57.76 5.82L57.76 5.82Q57.76 5.58 57.88 5.48L57.88 5.48L57.88 5.48Q57.97 5.41 58.19 5.41L58.19 5.41L58.19 5.41Q58.31 5.41 58.40 5.40L58.40 5.40L58.40 5.40Q58.48 5.40 58.54 5.40L58.54 5.40L58.54 5.40Q58.81 5.39 59.08 5.40L59.08 5.40L59.08 5.40Q59.34 5.41 59.61 5.41L59.61 5.41L59.61 5.41Q59.75 5.40 59.90 5.40L59.90 5.40L59.90 5.40Q60.04 5.39 60.18 5.41L60.18 5.41L60.53 5.43L60.53 5.43Q60.59 5.43 60.63 5.43L60.63 5.43L60.63 5.43Q60.68 5.43 60.71 5.45L60.71 5.45L60.71 5.45Q60.85 5.52 60.85 5.66L60.85 5.66L60.85 5.66Q60.84 5.72 60.80 5.76L60.80 5.76L60.80 5.76Q60.76 5.80 60.71 5.82L60.71 5.82L60.71 5.82Q60.66 5.84 60.60 5.84L60.60 5.84L60.60 5.84Q60.55 5.85 60.50 5.85L60.50 5.85L60.50 5.85Q60.09 5.85 59.68 5.83L59.68 5.83L59.68 5.83Q59.64 5.82 59.58 5.82L59.58 5.82L59.58 5.82Q59.51 5.82 59.44 5.82L59.44 5.82L59.04 5.82L59.04 5.82Q58.88 5.82 58.76 5.83L58.76 5.83L58.76 5.83Q58.64 5.83 58.56 5.83L58.56 5.83L58.56 5.83Q58.44 5.84 58.37 5.86L58.37 5.86L58.37 5.86Q58.29 5.89 58.26 5.94L58.26 5.94L58.26 5.94Q58.20 6.02 58.21 6.15L58.21 6.15L58.21 6.15Q58.21 6.20 58.21 6.24L58.21 6.24L58.21 6.24Q58.21 6.28 58.21 6.32L58.21 6.32L58.21 6.32Q58.19 6.40 58.19 6.49L58.19 6.49L58.19 6.49Q58.18 6.58 58.19 6.69L58.19 6.69L58.19 6.69Q58.19 6.88 58.34 7.01L58.34 7.01L58.34 7.01Q58.46 7.12 58.78 7.10L58.78 7.10L58.78 7.10Q58.93 7.10 59.07 7.08L59.07 7.08L59.07 7.08Q59.21 7.06 59.35 7.07L59.35 7.07L59.35 7.07Q59.41 7.07 59.51 7.07L59.51 7.07L59.51 7.07Q59.61 7.08 59.75 7.07L59.75 7.07L59.75 7.07Q60.02 7.06 60.12 7.16L60.12 7.16L60.12 7.16Q60.15 7.21 60.14 7.32L60.14 7.32L60.14 7.32Q60.12 7.44 59.95 7.47L59.95 7.47L59.95 7.47Q59.79 7.50 59.70 7.50L59.70 7.50L59.70 7.50Q59.58 7.51 59.46 7.50L59.46 7.50L59.46 7.50Q59.34 7.50 59.21 7.51L59.21 7.51L59.21 7.51Q59.06 7.52 58.91 7.51L58.91 7.51L58.91 7.51Q58.75 7.51 58.58 7.49L58.58 7.49L58.58 7.49Q58.56 7.49 58.53 7.49L58.53 7.49L58.53 7.49Q58.50 7.49 58.48 7.49L58.48 7.49L58.47 7.49L58.47 7.49Q58.40 7.47 58.32 7.52L58.32 7.52L58.32 7.52Q58.20 7.59 58.19 7.78L58.19 7.78L58.19 7.78Q58.17 7.96 58.19 8.09L58.19 8.09L58.19 8.09Q58.19 8.16 58.20 8.22L58.20 8.22L58.20 8.22Q58.20 8.29 58.19 8.33L58.19 8.33L58.19 8.33Q58.18 8.44 58.17 8.53L58.17 8.53L58.17 8.53Q58.16 8.63 58.15 8.74L58.15 8.74L58.15 8.74Q58.13 9.00 58.21 9.13L58.21 9.13L58.21 9.13Q58.33 9.28 58.62 9.28L58.62 9.28L58.62 9.28Q58.84 9.28 59.08 9.27L59.08 9.27L59.08 9.27Q59.31 9.26 59.54 9.25L59.54 9.25L59.54 9.25Q59.75 9.24 59.98 9.26L59.98 9.26L59.98 9.26Q60.20 9.28 60.42 9.28L60.42 9.28L60.42 9.28Q60.50 9.28 60.63 9.28L60.63 9.28L60.63 9.28Q60.77 9.28 60.85 9.32L60.85 9.32L60.85 9.32Q60.92 9.36 60.92 9.44L60.92 9.44L60.92 9.44Q61.00 9.69 60.71 9.70L60.71 9.70L60.71 9.70Q60.26 9.72 59.82 9.71L59.82 9.71L59.82 9.71Q59.39 9.71 58.95 9.71L58.95 9.71L58.95 9.71Q58.93 9.71 58.90 9.72L58.90 9.72L58.90 9.72Q58.88 9.72 58.86 9.72L58.86 9.72L58.86 9.72Q58.70 9.72 58.59 9.72L58.59 9.72L58.59 9.72Q58.47 9.72 58.40 9.71L58.40 9.71L58.40 9.71Q58.35 9.71 58.29 9.71L58.29 9.71L58.29 9.71Q58.22 9.71 58.14 9.70L58.14 9.70L58.14 9.70Q58.07 9.69 58.03 9.69L58.03 9.69L58.03 9.69Q57.98 9.68 57.96 9.67L57.96 9.67L57.96 9.67Q57.76 9.61 57.76 9.29ZM65.17 5.67L65.17 5.67L65.17 5.67Q65.31 5.82 65.40 5.99L65.40 5.99L65.40 5.99Q65.48 6.16 65.57 6.34L65.57 6.34L65.57 6.34Q65.67 6.54 65.63 6.74L65.63 6.74L65.63 6.74Q65.59 6.94 65.41 7.13L65.41 7.13L65.41 7.13Q65.26 7.28 64.93 7.37L64.93 7.37L64.93 7.37Q64.80 7.40 64.66 7.44L64.66 7.44L64.66 7.44Q64.52 7.48 64.47 7.60L64.47 7.60L64.47 7.60Q64.43 7.72 64.49 7.84L64.49 7.84L64.49 7.84Q64.56 7.97 64.60 8.05L64.60 8.05L64.60 8.05Q64.64 8.13 64.67 8.18L64.67 8.18L64.67 8.18Q64.70 8.24 64.76 8.33L64.76 8.33L64.76 8.33Q64.81 8.42 64.89 8.52L64.89 8.52L64.89 8.52Q65.04 8.74 65.22 8.93L65.22 8.93L65.22 8.93Q65.39 9.13 65.57 9.30L65.57 9.30L65.60 9.34L65.60 9.34Q65.75 9.49 65.61 9.63L65.61 9.63L65.61 9.63Q65.45 9.79 65.31 9.64L65.31 9.64L65.31 9.64Q65.19 9.52 65.11 9.43L65.11 9.43L65.11 9.43Q65.02 9.34 64.94 9.26L64.94 9.26L64.94 9.26Q64.78 9.05 64.63 8.83L64.63 8.83L64.63 8.83Q64.53 8.67 64.43 8.53L64.43 8.53L64.43 8.53Q64.32 8.39 64.22 8.23L64.22 8.23L64.22 8.23Q63.95 7.74 63.55 7.58L63.55 7.58L63.55 7.58Q63.12 7.42 62.92 7.70L62.92 7.70L62.92 7.70Q62.86 7.80 62.86 7.92L62.86 7.92L62.86 9.40L62.86 9.49L62.86 9.49Q62.86 9.69 62.64 9.70L62.64 9.70L62.64 9.70Q62.43 9.69 62.43 9.44L62.43 9.44L62.43 9.44Q62.43 9.28 62.44 9.12L62.44 9.12L62.44 9.12Q62.45 8.95 62.46 8.76L62.46 8.76L62.46 8.76Q62.47 8.63 62.46 8.49L62.46 8.49L62.46 8.49Q62.45 8.35 62.45 8.22L62.45 8.22L62.45 8.22Q62.45 8.09 62.45 7.96L62.45 7.96L62.45 7.96Q62.46 7.83 62.46 7.70L62.46 7.70L62.46 7.70Q62.47 7.40 62.44 7.07L62.44 7.07L62.44 7.07Q62.44 6.84 62.45 6.61L62.45 6.61L62.45 6.61Q62.46 6.38 62.45 6.14L62.45 6.14L62.45 6.14Q62.45 6.02 62.45 5.86L62.45 5.86L62.45 5.86Q62.45 5.71 62.49 5.58L62.49 5.58L62.49 5.58Q62.61 5.42 63.07 5.42L63.07 5.42L63.28 5.42L63.28 5.42Q63.53 5.42 63.78 5.44L63.78 5.44L63.78 5.44Q64.03 5.46 64.27 5.45L64.27 5.45L64.27 5.45Q64.84 5.42 65.17 5.67ZM63.25 7.15L63.25 7.15L63.25 7.15Q63.51 7.16 63.70 7.16L63.70 7.16L63.70 7.16Q63.90 7.16 64.04 7.14L64.04 7.14L64.04 7.14Q64.17 7.13 64.33 7.11L64.33 7.11L64.33 7.11Q64.49 7.09 64.68 7.05L64.68 7.05L64.68 7.05Q65.07 6.97 65.19 6.69L65.19 6.69L65.19 6.69Q65.24 6.59 65.22 6.47L65.22 6.47L65.22 6.47Q65.21 6.34 65.14 6.24L65.14 6.24L65.14 6.24Q65.08 6.14 64.98 6.07L64.98 6.07L64.98 6.07Q64.88 6.00 64.76 5.94L64.76 5.94L64.76 5.94Q64.65 5.89 64.54 5.87L64.54 5.87L64.54 5.87Q64.25 5.82 63.97 5.83L63.97 5.83L63.97 5.83Q63.68 5.84 63.40 5.82L63.40 5.82L63.40 5.82Q63.34 5.82 63.29 5.82L63.29 5.82L63.29 5.82Q63.24 5.82 63.18 5.82L63.18 5.82L63.18 5.82Q63.04 5.81 62.97 5.89L62.97 5.89L62.97 5.89Q62.90 5.96 62.92 6.08L62.92 6.08L62.92 6.08Q62.92 6.12 62.92 6.23L62.92 6.23L62.92 6.23Q62.92 6.33 62.90 6.43L62.90 6.43L62.90 6.43Q62.88 6.52 62.88 6.62L62.88 6.62L62.88 6.62Q62.84 6.88 62.94 7.01L62.94 7.01L62.94 7.01Q63.03 7.14 63.25 7.15Z"></path></g><!----><g data-v-423bf9ae="" id="d1c4843c-7fa5-4c69-be3f-87ba243ac7f9" transform="matrix(1.1125890096028646,0,0,1.1125890096028646,391.61954286927164,0.30353726377350654)" stroke="none" fill="black"><path d="M44.676 5.893c1.625 0 2.954 1.339 2.954 2.977v30.29a2.986 2.986 0 0 1-2.978 2.977h-3.853a2.986 2.986 0 0 0-2.977 2.977v45.801a2.986 2.986 0 0 1-2.977 2.977h-5.307a2.986 2.986 0 0 1-2.978-2.977V45.113a2.986 2.986 0 0 0-2.978-2.977H20.18a2.986 2.986 0 0 1-2.977-2.977V8.87a2.985 2.985 0 0 1 2.977-2.977h.114a2.986 2.986 0 0 1 2.977 2.977v19.173a2.986 2.986 0 0 0 2.977 2.977h.097a2.986 2.986 0 0 0 2.976-2.977V8.87a2.986 2.986 0 0 1 2.978-2.977h.758a2.992 2.992 0 0 1 2.981 2.977l.027 19.173c.002 1.637 1.277 2.977 2.831 2.977 1.555 0 2.826-1.34 2.826-2.977V8.87c-.001-1.638 1.328-2.977 2.954-2.977m0-5.955a8.857 8.857 0 0 0-5.804 2.16 8.889 8.889 0 0 0-5.816-2.16h-.758a8.901 8.901 0 0 0-6.003 2.323 8.898 8.898 0 0 0-6.001-2.323h-.114c-4.924 0-8.931 4.007-8.931 8.931v30.29c0 4.925 4.007 8.931 8.931 8.931h.428v42.824c0 4.926 4.005 8.932 8.931 8.932h5.307c4.924 0 8.93-4.006 8.93-8.932V48.09h.876c4.923 0 8.932-4.006 8.932-8.931V8.87c0-4.925-3.997-8.932-8.908-8.932zM79.471 6.019c.221 0 .34.004.34.004 1.641.064 2.98 1.458 2.98 3.098v82.007a2.99 2.99 0 0 1-2.981 2.981h-5.185a2.99 2.99 0 0 1-2.981-2.981V62.416c0-1.64-1.34-3.036-2.979-3.104 0 0-4.961-.203-4.961-6.448V18.74c0-12.195 13.444-12.721 15.767-12.721m0-5.962c-10.814 0-21.729 5.777-21.729 18.683v34.124c0 7.036 4.1 10.649 7.938 11.897v26.367c0 4.932 4.013 8.943 8.944 8.943h5.185c4.932 0 8.942-4.012 8.942-8.943V9.121c0-4.804-3.905-8.867-8.706-9.055.001 0-.202-.009-.574-.009z"></path></g><!----></svg>