<svg xmlns="http://www.w3.org/2000/svg" data-v-423bf9ae="" class="iconAbove" viewBox="404.14 0.23 86.23 111.41"><!----><!----><!----><g data-v-423bf9ae="" id="2615a84b-d684-4e5a-8dc7-076e4744e8b6" transform="matrix(1.1125890096028646,0,0,1.1125890096028646,391.61954286927164,0.30353726377350654)" stroke="none" fill="#F9B200"><path d="M44.676 5.893c1.625 0 2.954 1.339 2.954 2.977v30.29a2.986 2.986 0 0 1-2.978 2.977h-3.853a2.986 2.986 0 0 0-2.977 2.977v45.801a2.986 2.986 0 0 1-2.977 2.977h-5.307a2.986 2.986 0 0 1-2.978-2.977V45.113a2.986 2.986 0 0 0-2.978-2.977H20.18a2.986 2.986 0 0 1-2.977-2.977V8.87a2.985 2.985 0 0 1 2.977-2.977h.114a2.986 2.986 0 0 1 2.977 2.977v19.173a2.986 2.986 0 0 0 2.977 2.977h.097a2.986 2.986 0 0 0 2.976-2.977V8.87a2.986 2.986 0 0 1 2.978-2.977h.758a2.992 2.992 0 0 1 2.981 2.977l.027 19.173c.002 1.637 1.277 2.977 2.831 2.977 1.555 0 2.826-1.34 2.826-2.977V8.87c-.001-1.638 1.328-2.977 2.954-2.977m0-5.955a8.857 8.857 0 0 0-5.804 2.16 8.889 8.889 0 0 0-5.816-2.16h-.758a8.901 8.901 0 0 0-6.003 2.323 8.898 8.898 0 0 0-6.001-2.323h-.114c-4.924 0-8.931 4.007-8.931 8.931v30.29c0 4.925 4.007 8.931 8.931 8.931h.428v42.824c0 4.926 4.005 8.932 8.931 8.932h5.307c4.924 0 8.93-4.006 8.93-8.932V48.09h.876c4.923 0 8.932-4.006 8.932-8.931V8.87c0-4.925-3.997-8.932-8.908-8.932zM79.471 6.019c.221 0 .34.004.34.004 1.641.064 2.98 1.458 2.98 3.098v82.007a2.99 2.99 0 0 1-2.981 2.981h-5.185a2.99 2.99 0 0 1-2.981-2.981V62.416c0-1.64-1.34-3.036-2.979-3.104 0 0-4.961-.203-4.961-6.448V18.74c0-12.195 13.444-12.721 15.767-12.721m0-5.962c-10.814 0-21.729 5.777-21.729 18.683v34.124c0 7.036 4.1 10.649 7.938 11.897v26.367c0 4.932 4.013 8.943 8.944 8.943h5.185c4.932 0 8.942-4.012 8.942-8.943V9.121c0-4.804-3.905-8.867-8.706-9.055.001 0-.202-.009-.574-.009z"></path></g><!----></svg>